<?xml version="1.0" standalone="no"?>
<!DOCTYPE svg PUBLIC "-//W3C//DTD SVG 20010904//EN"
 "http://www.w3.org/TR/2001/REC-SVG-20010904/DTD/svg10.dtd">
<svg version="1.0" xmlns="http://www.w3.org/2000/svg"
 width="2272.000000pt" height="2272.000000pt" viewBox="0 0 2272.000000 2272.000000"
 preserveAspectRatio="xMidYMid meet">
<metadata>
Created by potrace 1.11, written by Peter Selinger 2001-2013
</metadata>
<g transform="translate(0.000000,2272.000000) scale(0.100000,-0.100000)"
fill="#000000" stroke="none">
<path d="M265 14747 c-36 -12 -160 -92 -198 -126 -57 -53 -79 -149 -50 -221
14 -34 87 -154 108 -176 5 -6 19 -27 30 -47 11 -20 23 -37 27 -37 5 0 8 -4 8
-9 0 -6 27 -49 59 -98 167 -250 401 -605 401 -609 0 -3 8 -14 18 -25 11 -10
25 -32 33 -47 8 -15 29 -46 47 -70 17 -24 32 -50 32 -58 0 -8 4 -14 8 -14 4 0
16 -15 27 -32 10 -18 21 -35 24 -38 3 -3 11 -12 16 -21 6 -9 19 -29 29 -45
321 -478 335 -513 241 -603 -49 -47 -71 -84 -69 -116 0 -11 2 -29 3 -40 0 -11
26 -58 56 -103 30 -46 55 -87 55 -92 0 -6 5 -10 10 -10 6 0 10 -5 10 -10 0 -6
15 -32 33 -58 18 -26 86 -130 152 -232 65 -102 122 -186 127 -188 4 -2 8 -8 8
-14 0 -5 13 -28 29 -51 16 -23 29 -46 29 -50 1 -4 13 -22 27 -39 22 -26 24
-33 12 -47 -7 -9 -19 -28 -27 -43 -7 -16 -17 -28 -22 -28 -4 0 -8 -4 -8 -9 0
-6 -50 -86 -111 -178 -61 -92 -142 -215 -180 -273 -38 -58 -74 -112 -79 -120
-6 -8 -44 -67 -85 -130 -41 -63 -79 -121 -85 -128 -7 -7 -17 -23 -24 -35 -6
-12 -70 -110 -141 -217 -72 -107 -133 -202 -136 -210 -4 -9 -14 -22 -23 -29
-9 -7 -16 -20 -16 -27 0 -8 -4 -14 -10 -14 -5 0 -10 -4 -10 -9 0 -9 -158 -254
-179 -278 -6 -7 -16 -24 -23 -38 -6 -14 -15 -25 -20 -25 -4 0 -8 -4 -8 -9 0
-11 -82 -135 -92 -139 -4 -2 -8 -8 -8 -14 0 -5 -17 -35 -39 -66 -21 -32 -75
-113 -120 -182 -44 -69 -84 -129 -89 -135 -14 -19 -47 -70 -58 -92 -7 -12 -11
-44 -9 -72 2 -50 5 -55 75 -146 44 -57 125 -129 207 -184 51 -33 97 -61 103
-61 5 0 10 -3 10 -7 0 -5 30 -26 66 -48 36 -22 71 -45 78 -50 11 -10 109 -55
131 -60 5 -1 17 -5 25 -8 13 -5 39 -12 90 -24 87 -20 134 -6 180 55 19 26 37
49 40 52 6 6 15 21 60 98 17 28 35 52 40 52 5 0 15 -11 22 -24 40 -73 319
-356 352 -356 4 0 19 -9 34 -19 38 -27 106 -68 112 -68 3 0 27 -12 53 -26 26
-15 52 -27 57 -27 6 0 29 -9 53 -19 23 -11 69 -27 102 -36 87 -23 84 -22 190
-40 17 -3 63 -7 104 -10 41 -3 79 -9 84 -12 6 -3 8 -2 4 3 -3 5 26 9 66 8 40
0 90 3 112 7 22 4 58 10 81 13 45 7 188 46 244 67 79 30 244 120 320 175 46
32 121 98 169 146 96 96 94 94 146 166 20 29 40 50 45 47 4 -3 36 -50 71 -106
102 -163 140 -179 308 -128 114 34 139 45 237 110 41 27 78 49 83 49 5 0 11 4
13 8 2 5 43 35 92 66 125 81 158 111 230 206 22 30 47 61 54 68 6 7 13 21 13
30 1 9 2 24 3 32 3 35 -18 85 -73 167 -130 195 -256 388 -260 397 -2 6 -8 15
-13 21 -22 25 -388 587 -388 596 0 5 -4 9 -9 9 -5 0 -16 15 -25 33 -15 30 -73
116 -96 144 -5 7 -10 16 -10 20 0 4 -10 20 -23 35 -12 15 -40 55 -62 90 -47
75 -351 539 -362 553 -23 28 -83 126 -83 134 0 5 -3 11 -7 13 -5 2 -44 57 -88
123 -120 181 -124 187 -107 193 7 2 12 8 12 12 0 12 130 213 144 222 6 4 8 8
4 8 -4 0 33 61 82 135 50 74 90 140 90 145 0 6 4 10 9 10 5 0 16 15 25 34 8
18 22 39 31 46 8 7 15 19 15 26 0 8 5 14 10 14 6 0 10 5 10 10 0 6 23 45 52
87 69 103 82 147 58 200 -10 22 -34 52 -53 67 -19 15 -40 40 -47 56 -14 34 -7
97 15 140 25 48 108 175 117 178 4 2 8 8 8 13 0 6 52 87 115 181 63 94 115
175 115 180 0 4 5 8 10 8 6 0 10 4 10 9 0 5 47 80 105 167 58 87 105 161 105
164 0 4 9 15 20 25 11 10 20 24 20 32 0 7 5 13 10 13 6 0 10 7 10 15 0 8 4 15
9 15 5 0 11 6 13 13 2 6 71 113 153 237 83 124 152 230 155 235 10 20 104 160
110 165 4 3 19 30 34 61 42 86 34 170 -21 236 -19 23 -131 101 -183 128 -68
35 -163 27 -227 -21 -17 -13 -96 -123 -180 -254 -81 -126 -174 -269 -205 -317
-115 -178 -163 -254 -173 -273 -5 -11 -13 -20 -17 -20 -5 0 -8 -4 -8 -9 0 -4
-24 -44 -52 -88 -29 -44 -73 -112 -98 -152 -25 -40 -50 -78 -55 -84 -6 -7 -43
-64 -84 -127 -78 -124 -232 -363 -253 -394 -62 -90 -148 -123 -215 -83 -49 29
-109 31 -150 6 -31 -19 -173 -216 -173 -240 0 -5 -3 -9 -8 -9 -4 0 -18 -20
-32 -45 -14 -25 -28 -45 -31 -45 -4 0 -12 -13 -19 -30 -7 -16 -16 -30 -20 -30
-4 0 -13 -13 -20 -29 -16 -40 -34 -44 -48 -12 -7 15 -21 37 -32 49 -11 12 -20
23 -20 26 0 2 -22 37 -48 78 -27 40 -75 114 -107 163 -33 50 -70 100 -83 112
-37 34 -97 39 -157 12 -53 -24 -102 -32 -111 -17 -3 4 -9 6 -14 3 -14 -9 -92
75 -143 152 -26 40 -47 75 -47 78 0 3 -9 15 -20 27 -11 12 -20 28 -20 35 0 7
-3 13 -7 13 -5 0 -24 27 -42 60 -19 33 -39 60 -43 60 -4 0 -8 6 -8 14 0 7 -15
33 -33 57 -18 24 -39 56 -46 72 -8 15 -18 27 -23 27 -4 0 -8 5 -8 11 0 5 -24
47 -54 92 -53 82 -161 248 -221 342 -18 28 -66 102 -107 165 -41 63 -105 164
-143 223 -218 336 -243 372 -285 396 -46 26 -129 34 -175 18z"/>
<path d="M11886 13018 c-87 -10 -167 -48 -224 -107 -37 -38 -69 -92 -76 -126
-1 -5 -4 -14 -8 -20 -10 -17 -2 -159 11 -183 6 -12 9 -22 6 -22 -9 0 33 -59
69 -98 34 -37 133 -92 165 -92 11 0 22 -3 24 -8 6 -9 151 -8 197 3 53 12 142
63 178 103 87 97 112 254 57 364 -67 135 -221 206 -399 186z"/>
<path d="M18319 13026 c-2 -2 -29 -6 -59 -9 -30 -3 -62 -7 -70 -10 -8 -2 -30
-8 -47 -12 -18 -4 -33 -11 -33 -16 0 -4 -9 -10 -19 -14 -28 -9 -85 -64 -113
-110 -35 -58 -47 -108 -44 -184 6 -152 113 -272 276 -308 82 -19 215 -1 291
37 130 67 203 241 162 384 -26 88 -79 152 -159 191 -52 26 -66 30 -134 41 -19
3 -38 8 -41 10 -3 2 -8 2 -10 0z"/>
<path d="M8407 12734 c-1 -1 -24 -4 -52 -8 -110 -13 -142 -18 -200 -32 -33 -9
-67 -17 -75 -18 -8 -2 -22 -6 -30 -9 -8 -2 -44 -15 -80 -27 -134 -46 -284
-128 -405 -220 -62 -47 -219 -218 -267 -290 -48 -72 -148 -259 -148 -275 0 -3
0 -6 -1 -7 0 -2 -2 -10 -4 -18 -2 -8 -11 -34 -19 -57 -8 -22 -17 -52 -20 -65
-2 -12 -9 -43 -14 -68 -34 -151 -37 -374 -7 -555 13 -78 52 -222 75 -270 5
-11 21 -47 35 -80 27 -61 117 -205 162 -260 76 -93 207 -213 288 -265 108 -69
194 -112 340 -171 28 -11 85 -27 115 -33 14 -3 57 -12 95 -20 102 -22 154 -27
305 -28 122 -1 230 5 286 16 24 5 89 16 119 21 39 6 200 60 203 67 2 4 10 8
18 8 17 0 148 62 152 73 2 4 9 7 16 7 13 0 56 30 122 84 18 14 35 26 39 26 10
0 165 160 165 171 0 6 -11 20 -24 32 -13 12 -68 63 -122 112 -54 50 -121 112
-149 139 -27 26 -61 56 -76 66 l-25 19 -45 -47 c-46 -48 -113 -104 -161 -135
-57 -35 -118 -67 -118 -61 0 4 -6 2 -12 -3 -14 -11 -98 -40 -139 -48 -124 -26
-294 -25 -404 0 -94 22 -245 81 -245 96 0 5 -6 9 -14 9 -41 0 -256 208 -256
249 0 5 -4 11 -8 13 -9 3 -64 115 -81 163 -32 94 -40 144 -45 280 -10 303 104
557 325 722 58 44 187 113 211 113 8 0 18 3 22 8 4 4 11 7 14 8 4 0 21 3 37 7
88 21 153 29 235 30 70 0 177 -9 200 -17 8 -3 26 -8 40 -10 122 -24 280 -118
401 -238 l46 -46 28 24 c26 22 185 168 250 229 18 17 51 47 74 67 22 21 41 43
41 49 0 22 -166 174 -251 231 -97 64 -176 105 -274 141 -38 14 -79 29 -90 33
-25 9 -16 7 -105 26 -71 16 -111 23 -205 34 -35 5 -284 11 -288 8z"/>
<path d="M15110 11346 l0 -1343 33 -2 c47 -2 150 -3 162 -1 6 1 28 1 50 1 122
-3 198 -2 202 3 3 3 14 1 24 -4 10 -6 20 -6 23 -1 3 5 21 5 41 1 20 -4 38 -4
41 1 3 5 10 6 16 3 12 -8 168 -8 175 0 3 3 14 1 24 -4 10 -6 20 -6 23 -1 3 5
21 5 41 1 20 -4 38 -4 41 1 3 5 10 6 16 3 12 -8 168 -8 175 0 3 3 14 1 24 -4
10 -6 20 -6 23 -1 3 5 21 5 41 1 20 -4 38 -4 41 1 3 5 10 6 16 3 6 -4 49 -6
97 -5 47 1 92 2 99 2 6 -1 18 -1 25 -2 60 -3 287 23 357 41 19 5 46 11 60 13
85 15 227 77 327 144 108 71 226 240 247 353 27 138 25 279 -3 378 -5 18 -11
36 -12 40 -1 4 -6 18 -12 32 -6 14 -11 27 -11 30 -1 3 -17 32 -35 65 -35 62
-143 176 -196 208 -48 28 -164 85 -183 89 -13 3 -9 9 18 26 257 158 375 453
298 747 -5 22 -15 46 -20 53 -6 6 -7 12 -3 12 7 0 -50 105 -69 126 -6 7 -24
29 -41 49 -16 20 -52 53 -80 73 -27 20 -52 39 -55 42 -6 7 -155 80 -163 80 -3
0 -18 5 -34 12 -15 6 -37 13 -47 15 -11 2 -47 10 -79 19 -32 8 -78 17 -101 19
-22 3 -52 8 -66 12 -14 3 -368 8 -787 9 l-763 3 0 -1343z m1400 861 c14 -3 39
-8 55 -12 53 -11 134 -53 169 -87 48 -47 78 -119 78 -193 1 -74 -4 -101 -30
-152 -33 -64 -125 -132 -202 -148 -8 -2 -15 -4 -15 -5 0 -1 -9 -3 -20 -5 -11
-1 -38 -6 -60 -10 -22 -4 -201 -8 -398 -9 l-357 -1 0 58 c-1 73 -1 269 0 443
l0 135 378 -4 c207 -2 388 -7 402 -10z m5 -1077 c152 -6 285 -50 353 -118 113
-113 104 -350 -15 -439 -21 -15 -40 -30 -43 -34 -5 -5 -67 -32 -85 -36 -5 -1
-29 -7 -52 -13 -24 -5 -62 -12 -85 -15 -55 -6 -848 -8 -854 -2 -4 3 -7 432 -4
614 0 38 2 42 28 45 28 3 654 2 757 -2z"/>
<path d="M19235 12510 c-2 -8 -4 -109 -4 -225 0 -115 0 -222 -1 -237 l0 -28
-159 0 -158 0 1 -231 1 -231 158 0 157 1 0 -37 c4 -633 8 -963 14 -987 30
-129 57 -200 101 -270 59 -92 175 -190 267 -224 18 -7 42 -17 53 -21 80 -32
209 -49 350 -46 150 4 214 12 295 38 51 16 157 67 170 83 10 13 8 21 -21 90
-27 62 -121 312 -121 323 -2 16 -5 15 -42 -7 -82 -50 -217 -68 -301 -41 -53
17 -111 64 -129 103 -33 74 -35 103 -36 547 l-1 451 208 -1 c114 -1 231 -1
258 -1 l50 1 1 230 0 230 -258 0 -258 0 0 250 c0 138 -3 250 -7 251 -5 1 -137
2 -296 3 -247 1 -288 -1 -292 -14z"/>
<path d="M11145 12089 c-27 -4 -66 -10 -85 -12 -19 -3 -47 -10 -62 -16 -16 -6
-28 -8 -28 -6 0 9 -188 -70 -200 -84 -3 -4 -23 -18 -45 -32 -44 -29 -125 -107
-125 -121 0 -4 -6 -8 -12 -8 -10 0 -13 32 -13 127 l0 128 -270 2 c-148 0 -277
-1 -285 -3 -13 -3 -15 -126 -15 -1028 0 -563 2 -1027 5 -1030 3 -3 21 -6 40
-6 48 -1 157 -2 205 0 22 0 54 1 70 1 17 -1 83 -1 149 -1 65 -1 121 2 125 5 3
4 6 246 7 538 1 559 4 611 47 712 11 28 23 52 26 55 4 3 12 17 20 32 16 31
104 118 119 118 6 0 12 3 14 8 3 8 57 34 103 50 65 23 150 33 248 31 l102 -3
0 274 0 273 -45 2 c-25 0 -67 -2 -95 -6z"/>
<path d="M13645 12089 c-22 -4 -60 -10 -85 -13 -155 -18 -351 -98 -491 -198
-303 -217 -458 -579 -416 -973 25 -243 147 -487 319 -637 33 -29 66 -58 72
-63 25 -23 149 -97 208 -123 166 -75 322 -107 528 -107 213 0 329 19 479 80
189 77 370 239 445 400 10 21 15 40 10 42 -5 2 -19 9 -31 16 -11 6 -47 26 -80
44 -32 17 -78 42 -103 56 -25 14 -70 38 -100 54 -30 15 -57 30 -60 33 -11 11
-79 44 -83 40 -2 -3 -18 -26 -35 -51 -69 -102 -171 -177 -287 -209 -74 -21
-257 -19 -292 3 -7 5 -13 6 -13 3 0 -21 -166 71 -211 116 -69 68 -131 178
-145 253 -2 11 -7 38 -12 60 -10 47 -8 190 2 255 11 67 63 185 106 239 78 99
197 168 320 187 58 9 156 9 195 1 17 -4 41 -9 55 -12 89 -18 217 -114 289
-218 29 -43 34 -46 54 -36 12 7 24 15 27 18 3 3 25 16 50 28 79 39 235 122
245 130 6 4 31 18 57 31 26 13 50 27 53 32 6 10 -29 79 -78 149 -57 83 -165
180 -262 237 -27 15 -52 29 -55 30 -3 0 -27 10 -53 22 -27 12 -54 22 -61 22
-7 0 -17 5 -24 12 -7 7 -12 9 -12 5 0 -3 -11 -2 -26 3 -14 6 -37 12 -52 15
-15 3 -38 7 -52 10 -90 19 -323 27 -395 14z"/>
<path d="M21528 12095 c-2 -1 -34 -5 -73 -8 -112 -10 -233 -36 -310 -68 -16
-7 -36 -13 -43 -15 -7 -1 -36 -15 -65 -30 -241 -125 -361 -317 -358 -569 0
-47 10 -123 18 -145 3 -8 7 -20 9 -27 1 -7 15 -38 30 -70 40 -81 131 -168 232
-221 45 -24 83 -43 84 -42 2 1 10 -1 18 -4 50 -16 120 -36 150 -42 19 -4 37
-8 40 -9 43 -10 72 -15 103 -20 59 -8 110 -16 137 -21 14 -2 45 -7 70 -10 25
-3 54 -8 65 -10 11 -3 35 -7 53 -9 49 -7 153 -44 183 -65 57 -42 70 -119 28
-182 -19 -30 -73 -63 -134 -83 -77 -25 -327 -26 -460 0 -147 27 -281 72 -392
130 -59 31 -84 40 -92 32 -6 -6 -11 -14 -11 -18 0 -3 -24 -58 -54 -120 -131
-279 -129 -272 -109 -286 10 -7 23 -17 30 -23 7 -5 15 -10 18 -10 3 0 27 -10
53 -21 101 -45 117 -52 122 -52 3 0 20 -6 38 -14 17 -7 32 -11 32 -9 0 3 18
-1 40 -9 43 -15 175 -45 225 -51 17 -2 55 -7 85 -11 70 -10 388 -10 460 -1
346 47 583 184 688 398 24 49 46 110 51 145 8 58 7 187 -3 233 -18 81 -66 178
-115 229 -43 44 -123 103 -140 103 -6 0 -11 3 -11 8 0 16 -195 83 -315 108
-39 8 -80 15 -110 20 -16 2 -41 6 -55 9 -14 3 -45 8 -70 10 -25 3 -52 7 -60
10 -8 2 -31 7 -50 11 -19 3 -44 7 -55 9 -60 11 -139 37 -175 57 -142 80 -86
242 100 289 112 28 300 28 445 -1 28 -6 60 -12 73 -15 12 -2 27 -7 32 -10 5
-3 18 -8 27 -10 33 -7 118 -41 169 -67 l51 -27 36 72 c20 40 52 108 72 152 20
44 48 102 61 128 34 69 32 78 -29 106 -100 45 -260 97 -329 106 -15 2 -35 6
-45 9 -10 3 -38 8 -63 11 -25 3 -58 7 -73 10 -30 6 -324 15 -329 10z"/>
<path d="M11645 11039 c0 -565 3 -1030 6 -1033 7 -7 58 -8 99 -3 14 2 37 0 52
-4 15 -4 30 -4 33 1 3 4 20 5 37 1 18 -4 35 -8 38 -9 3 -1 22 3 43 7 20 5 37
5 37 1 0 -4 16 -4 34 0 19 4 37 6 40 3 9 -9 169 -5 175 5 5 8 7 2025 2 2053
-1 3 -135 6 -299 5 l-298 0 1 -1027z"/>
<path d="M18007 12056 c-2 -6 -3 -469 -3 -1029 1 -878 3 -1019 16 -1027 8 -5
18 -6 23 -3 9 6 68 6 102 0 11 -2 34 -1 52 4 20 4 33 3 33 -3 0 -5 4 -6 10 -3
5 3 34 6 62 5 29 0 76 0 103 0 88 2 120 2 130 0 6 -1 24 -2 40 -1 l30 1 -2
1023 c0 562 -2 1027 -2 1033 -1 14 -589 15 -594 0z"/>
</g>
</svg>
