<svg width="142" height="44" viewBox="0 0 142 44" fill="none" xmlns="http://www.w3.org/2000/svg">
<path d="M5.91045 40.7723C5.67748 40.9664 5.35714 41.0344 5.06592 40.9567L4.32817 40.7529C3.98842 40.6655 3.65837 40.5199 3.36715 40.3258L1.47424 39.0929C1.17332 38.8988 0.911219 38.6561 0.687952 38.3843L0.212298 37.7922C-0.0497979 37.4718 -0.0692129 37.0253 0.154054 36.6758L16.0254 12.5339C16.0739 12.4563 16.1322 12.3883 16.2001 12.3301C16.4914 12.0874 16.9088 12.068 17.2291 12.2718C17.2873 12.3107 17.3553 12.3398 17.4232 12.3689L17.4427 12.3786C17.4524 12.3786 17.4621 12.3883 17.4621 12.3883C17.4912 12.398 17.5203 12.4077 17.5494 12.4077C17.5689 12.4077 17.598 12.4174 17.6174 12.4174C17.6465 12.4174 17.6659 12.4174 17.6853 12.4174H17.7048C17.7727 12.4174 17.8504 12.398 17.9086 12.3786L17.928 12.3689L17.9474 12.3592H17.9669L18.0348 12.3301C18.1028 12.2912 18.1707 12.2524 18.2387 12.1942C18.2678 12.165 18.2969 12.1456 18.3357 12.1068C18.4328 12.0097 18.5299 11.8932 18.6269 11.7573L25.3347 1.37059C25.4123 1.2541 25.4997 1.14732 25.6065 1.05996C25.7035 0.982298 25.82 0.914347 25.9462 0.856103C26.3539 0.681373 26.8199 0.729908 27.1984 0.982296L27.9168 1.44825C28.1206 1.58415 28.2857 1.76858 28.3924 1.99185C28.4992 2.21512 28.538 2.4578 28.5089 2.71019C28.4798 2.92375 28.4119 3.11789 28.2954 3.29262L27.4314 4.6031L21.4809 13.6114C21.3935 13.7473 21.3256 13.8832 21.277 14.0094C21.2285 14.1453 21.1994 14.2618 21.1897 14.3783V14.3977C21.1897 14.4074 21.1897 14.4171 21.1897 14.4365V14.4851C21.1897 14.4948 21.1897 14.5336 21.1897 14.5433V14.553C21.1994 14.5919 21.1994 14.6307 21.2091 14.6695C21.2091 14.6792 21.2188 14.7083 21.2285 14.7375C21.2576 14.8054 21.2964 14.8734 21.3547 14.9316C21.4129 14.9996 21.4809 15.0578 21.5585 15.1063C21.9565 15.3781 22.073 15.9218 21.8012 16.3198L6.1046 40.549C6.05606 40.6364 5.98811 40.7044 5.91045 40.7723Z" fill="white"/>
<path d="M22.6166 40.7723C22.8496 40.9664 23.1699 41.0344 23.4611 40.9567L24.1989 40.7529C24.5387 40.6655 24.8687 40.5199 25.1599 40.3258L27.0528 39.0929C27.3538 38.8988 27.6159 38.6561 27.8391 38.3843L28.3148 37.7922C28.5769 37.4718 28.5963 37.0253 28.373 36.6758L12.5114 12.5339C12.4628 12.4563 12.4046 12.3883 12.3366 12.3301C12.0454 12.0874 11.628 12.068 11.3077 12.2718C11.2494 12.3107 11.1815 12.3398 11.1135 12.3689L11.0941 12.3786C11.0844 12.3786 11.0747 12.3883 11.0747 12.3883C11.0456 12.398 11.0165 12.4077 10.9873 12.4077C10.9679 12.4077 10.9388 12.4174 10.9194 12.4174C10.8903 12.4174 10.8709 12.4174 10.8514 12.4174H10.832C10.7641 12.4174 10.6864 12.398 10.6282 12.3786L10.6088 12.3689L10.5893 12.3592H10.5699L10.502 12.3301C10.434 12.2912 10.3661 12.2524 10.2981 12.1942C10.269 12.165 10.2399 12.1456 10.201 12.1068C10.104 12.0097 10.0069 11.8932 9.90983 11.7573L3.20212 1.37059C3.12446 1.2541 3.0371 1.14732 2.93032 1.05996C2.83325 0.982298 2.71676 0.914347 2.59057 0.856103C2.18286 0.681373 1.71692 0.729908 1.33833 0.982296L0.619994 1.44825C0.416142 1.58415 0.251119 1.76858 0.14434 1.99185C0.0375599 2.21512 -0.00126732 2.4578 0.0278544 2.71019C0.0569762 2.92375 0.124925 3.11789 0.241412 3.29262L1.10536 4.6031L7.0559 13.6114C7.14326 13.7473 7.21122 13.8832 7.25975 14.0094C7.30829 14.1453 7.33741 14.2618 7.34712 14.3783V14.3977C7.34712 14.4074 7.34712 14.4171 7.34712 14.4365V14.4851C7.34712 14.4948 7.34712 14.5336 7.34712 14.5433V14.553C7.33741 14.5919 7.33741 14.6307 7.32771 14.6695C7.32771 14.6792 7.318 14.7083 7.30829 14.7375C7.27917 14.8054 7.24034 14.8734 7.1821 14.9316C7.12385 14.9996 7.0559 15.0578 6.97824 15.1063C6.58024 15.3781 6.46376 15.9218 6.73556 16.3198L22.4225 40.549C22.471 40.6364 22.539 40.7043 22.6166 40.7723Z" fill="white"/>
<path d="M14.2684 43.2477C13.1715 43.2477 12.1037 43.0438 11.0941 42.6555C10.8806 42.5681 10.667 42.4808 10.4534 42.374C10.0263 42.1604 9.60891 41.9178 9.22062 41.646L9.19149 41.6265C8.98764 41.4809 8.78379 41.3256 8.58965 41.1509L8.52169 41.0926C8.34696 40.9373 8.17223 40.7723 7.9975 40.5976C7.87131 40.4617 7.74511 40.3258 7.62863 40.1899C7.41507 39.9375 7.21121 39.6754 7.02678 39.4036C6.95883 39.3065 6.89087 39.1997 6.83263 39.0929L6.77439 38.9959C6.72585 38.9085 6.67732 38.8309 6.62878 38.7435C6.54142 38.5785 6.45405 38.4134 6.37639 38.2484C6.32786 38.1513 6.27932 38.0446 6.24049 37.9475C5.77454 36.8603 5.53186 35.6954 5.53186 34.5014C5.53186 29.6769 9.45359 25.7455 14.2878 25.7455C16.6369 25.7455 18.8502 26.6677 20.5004 28.3373C20.5975 28.4344 20.6849 28.5315 20.7722 28.6285C20.9858 28.8615 21.1799 29.1042 21.3644 29.3566C21.5003 29.541 21.6362 29.7449 21.7527 29.939C21.9177 30.2011 22.0633 30.4826 22.1992 30.7544C22.2769 30.9194 22.3545 31.0942 22.4225 31.2592C22.5681 31.6184 22.6846 31.997 22.7816 32.3755C22.8399 32.5988 22.8884 32.8415 22.9272 33.0648C22.9952 33.453 23.0243 33.851 23.0437 34.2393C23.0437 34.3267 23.0437 34.4141 23.0437 34.4917C23.0437 34.6761 23.034 34.8606 23.0243 35.045C22.7137 39.6463 18.8793 43.2477 14.2684 43.2477Z" fill="black"/>
<path d="M22.5681 34.4917C22.5681 34.6664 22.5584 34.8412 22.5487 35.0159C22.2769 39.355 18.6755 42.7914 14.2684 42.7914C13.2103 42.7914 12.191 42.5876 11.2591 42.2284C11.0553 42.1507 10.8514 42.0634 10.6573 41.9663C10.2399 41.7624 9.83217 41.5198 9.45359 41.2577C9.25945 41.1218 9.0653 40.9665 8.88087 40.8111C8.68672 40.6461 8.50228 40.4714 8.31784 40.2869C8.20135 40.1607 8.08487 40.0346 7.96838 39.9084C7.76453 39.6657 7.57038 39.423 7.39565 39.1609C7.3277 39.0638 7.26946 38.9668 7.21122 38.8697C7.1918 38.8406 7.17239 38.8017 7.15297 38.7726C7.10444 38.695 7.0559 38.6173 7.01707 38.5299C6.92971 38.3746 6.85205 38.2193 6.77439 38.0543C6.72586 37.9572 6.68702 37.8601 6.63849 37.7631C6.21137 36.7632 5.96869 35.6566 5.96869 34.4917C5.96869 29.9099 9.68657 26.192 14.2684 26.192C16.569 26.192 18.6561 27.1336 20.1607 28.648C20.248 28.7353 20.3354 28.8227 20.4228 28.9198C20.6169 29.143 20.8111 29.3663 20.9858 29.609C21.112 29.7934 21.2382 29.9778 21.3547 30.1623C21.51 30.4147 21.6459 30.6671 21.7721 30.9389C21.8497 31.0942 21.9177 31.2495 21.9759 31.4145C22.1118 31.7543 22.2283 32.1134 22.3157 32.4726C22.3739 32.6862 22.4128 32.9094 22.4516 33.1327C22.5098 33.5016 22.5487 33.8705 22.5584 34.249C22.5681 34.3267 22.5681 34.4141 22.5681 34.4917Z" fill="white"/>
<path d="M20.3063 29.6284C20.3063 29.6478 20.3257 29.706 20.3354 29.7546C20.3645 29.8419 20.3937 29.939 20.3645 30.0458C20.3354 30.1526 20.2578 30.2205 20.1898 30.2885C20.1607 30.3176 20.1122 30.3661 20.1025 30.3855C20.0927 30.405 20.1024 30.4729 20.1122 30.5117C20.1316 30.5991 20.151 30.7059 20.1122 30.8127C20.0733 30.9097 19.986 30.9777 19.918 31.0262C19.8792 31.0554 19.8306 31.0942 19.8209 31.1136C19.8112 31.133 19.8209 31.201 19.8209 31.2398C19.8306 31.3369 19.8404 31.4339 19.7821 31.531C19.7336 31.6281 19.6462 31.6766 19.5588 31.7251C19.52 31.7446 19.4618 31.7834 19.4521 31.8028C19.4424 31.8222 19.4424 31.8805 19.4424 31.929C19.4424 32.0261 19.4424 32.1231 19.3744 32.2202C19.3162 32.3076 19.2191 32.3561 19.1414 32.395C19.1026 32.4144 19.0444 32.4435 19.0249 32.4629C19.0152 32.4823 19.0055 32.5406 18.9958 32.5891C18.9861 32.6765 18.9764 32.7832 18.9085 32.8706C18.8405 32.958 18.7434 32.9871 18.6561 33.0259C18.6172 33.0453 18.559 33.0647 18.5396 33.0842C18.5202 33.1036 18.5105 33.1618 18.5008 33.2104C18.4813 33.2977 18.4619 33.4045 18.394 33.4822C18.326 33.5598 18.2192 33.5889 18.1319 33.6181C18.0833 33.6278 18.0251 33.6472 18.0154 33.6666C17.996 33.686 17.9863 33.7443 17.9766 33.7831C17.9571 33.8705 17.928 33.9675 17.8504 34.0452C17.7727 34.1228 17.6756 34.1423 17.5883 34.1617C17.5397 34.1714 17.4815 34.1811 17.4621 34.2005C17.4427 34.2199 17.4232 34.2782 17.4135 34.317C17.3844 34.4043 17.3553 34.5014 17.2776 34.5694C17.2 34.6373 17.0932 34.6567 17.0058 34.6664C16.9573 34.6762 16.8991 34.6859 16.8796 34.6956C16.8602 34.715 16.8408 34.7732 16.8214 34.8121C16.7923 34.8994 16.7534 34.9965 16.6661 35.0644C16.5787 35.1324 16.4816 35.1421 16.3846 35.1518C16.336 35.1615 16.2778 35.1615 16.2584 35.1809C16.239 35.1906 16.2195 35.2489 16.2001 35.2974C16.1613 35.3848 16.1225 35.4722 16.0351 35.5401C15.9477 35.5983 15.841 35.6081 15.7536 35.6178C15.7051 35.6178 15.6468 35.6275 15.6274 35.6372C15.608 35.6469 15.5789 35.7051 15.5595 35.744C15.5206 35.8216 15.4721 35.9187 15.3847 35.9769C15.2974 36.0352 15.1906 36.0352 15.1032 36.0352C15.0547 36.0352 14.9964 36.0352 14.977 36.0449C14.9576 36.0546 14.9285 36.1128 14.9091 36.1517C14.8605 36.2293 14.812 36.3167 14.7246 36.3749C14.6276 36.4332 14.5305 36.4235 14.4334 36.4235C14.3849 36.4235 14.3266 36.4235 14.3072 36.4332C14.2878 36.4429 14.2587 36.5011 14.2296 36.5399C14.181 36.6176 14.1325 36.705 14.0354 36.7535C13.9383 36.802 13.8413 36.7923 13.7442 36.7923C13.6957 36.7923 13.6374 36.7826 13.618 36.7923C13.5986 36.802 13.5598 36.8506 13.5404 36.8894C13.4918 36.9671 13.4336 37.0544 13.3365 37.0933C13.2394 37.1418 13.1326 37.1224 13.0453 37.1127C12.9967 37.103 12.9385 37.103 12.9191 37.1127C12.8997 37.1224 12.8608 37.1709 12.8317 37.2097C12.7832 37.2874 12.7152 37.3651 12.6182 37.4039C12.5211 37.4427 12.4143 37.433 12.3269 37.4136C12.2784 37.4039 12.2202 37.3942 12.2007 37.4039C12.1813 37.4136 12.1425 37.4621 12.1134 37.501C12.0551 37.5689 11.9969 37.6466 11.8901 37.6854C11.793 37.7242 11.6863 37.7048 11.5989 37.6854C11.5504 37.6757 11.4921 37.666 11.4727 37.666C11.4533 37.6757 11.4048 37.7242 11.3756 37.7534C11.3174 37.8213 11.2494 37.899 11.1427 37.9281C11.0359 37.9572 10.9388 37.9281 10.8514 37.9087C10.8126 37.899 10.7447 37.8795 10.7253 37.8893C10.7058 37.899 10.6573 37.9378 10.6282 37.9766C10.5602 38.0446 10.4923 38.1125 10.3855 38.1416C10.2787 38.1708 10.1719 38.1319 10.0943 38.1028C10.0555 38.0931 9.9972 38.0737 9.96808 38.0737C9.93896 38.0834 9.90013 38.1222 9.8613 38.1513C9.79335 38.2096 9.7157 38.2775 9.60892 38.297C9.50214 38.3164 9.39536 38.2775 9.3177 38.2387C9.27887 38.2193 9.22063 38.1999 9.20121 38.1999C9.17209 38.1999 9.12355 38.2387 9.08472 38.2678C9.01677 38.3261 8.92941 38.3843 8.82263 38.394C8.71585 38.4037 8.60907 38.3552 8.53141 38.3067C8.49258 38.2873 8.44404 38.2581 8.41492 38.2581C8.3858 38.2581 8.33726 38.2873 8.28873 38.3164C8.21107 38.3649 8.1237 38.4134 8.02663 38.4134H8.01693C7.90044 38.4134 7.81307 38.3455 7.73541 38.2873C7.70629 38.2678 7.64805 38.229 7.62864 38.229C7.59951 38.229 7.54127 38.2484 7.50244 38.2678C7.41508 38.297 7.31801 38.3358 7.21123 38.3164C7.09474 38.2873 7.01708 38.2096 6.94913 38.1416C6.92001 38.1125 6.88118 38.064 6.86176 38.064C6.84235 38.0543 6.79381 38.0543 6.74528 38.064C6.69674 37.9669 6.65791 37.8698 6.60938 37.7728C6.6385 37.7728 6.66762 37.7728 6.68703 37.7631C6.7744 37.7534 6.86176 37.7436 6.95883 37.7825C7.0462 37.8116 7.10445 37.8795 7.16269 37.9378C7.19181 37.9766 7.24034 38.0252 7.26947 38.0252C7.28888 38.0252 7.34713 38.0057 7.38595 37.9863C7.46361 37.9572 7.56068 37.9184 7.65776 37.9281C7.75483 37.9378 7.83249 37.996 7.90044 38.0446C7.93927 38.0737 7.99751 38.1125 8.01693 38.1125C8.03634 38.1125 8.09459 38.0834 8.13341 38.0543C8.21107 38.0057 8.29844 37.9572 8.39551 37.9572C8.49258 37.9572 8.57994 37.996 8.6576 38.0446C8.69643 38.064 8.75468 38.0931 8.7838 38.0931C8.80322 38.0931 8.86146 38.0543 8.89058 38.0252C8.95853 37.9766 9.04589 37.9087 9.14296 37.899C9.24004 37.8893 9.33711 37.9281 9.41477 37.9572C9.4536 37.9766 9.52155 37.996 9.54097 37.996C9.56038 37.996 9.60892 37.9475 9.63804 37.9184C9.70599 37.8601 9.78365 37.7922 9.88072 37.7728C9.97779 37.7534 10.0749 37.7825 10.1622 37.8116C10.2108 37.831 10.269 37.8504 10.2884 37.8407C10.3078 37.831 10.3564 37.7922 10.3855 37.7631C10.4437 37.7048 10.5214 37.6272 10.6185 37.598C10.7155 37.5689 10.8126 37.598 10.9 37.6174C10.9485 37.6272 11.0068 37.6466 11.0262 37.6369C11.0456 37.6272 11.0941 37.5786 11.1232 37.5495C11.1815 37.4815 11.2494 37.4039 11.3465 37.3748C11.4436 37.3456 11.5407 37.3651 11.628 37.3845C11.6766 37.3942 11.7348 37.4039 11.7542 37.3942C11.7736 37.3845 11.8125 37.3359 11.8416 37.3068C11.8998 37.2389 11.9581 37.1612 12.0551 37.1224C12.1522 37.0836 12.2493 37.103 12.3367 37.1127C12.3852 37.1224 12.4434 37.1321 12.4628 37.1224C12.4823 37.1127 12.5211 37.0641 12.5502 37.0253C12.5987 36.9574 12.6667 36.87 12.7541 36.8312C12.8511 36.7923 12.9482 36.802 13.0356 36.8117C13.0841 36.8215 13.1424 36.8215 13.1618 36.8117C13.1812 36.802 13.22 36.7438 13.2394 36.7147C13.288 36.637 13.3462 36.5594 13.4336 36.5108C13.5306 36.4623 13.6277 36.472 13.7151 36.4817C13.7636 36.4817 13.8219 36.4914 13.8413 36.4817C13.8607 36.472 13.8995 36.4138 13.9189 36.3749C13.9675 36.2973 14.016 36.2099 14.1131 36.1614C14.2004 36.1128 14.3072 36.1128 14.3946 36.1128C14.4431 36.1128 14.5014 36.1128 14.5208 36.1031C14.5402 36.0934 14.5693 36.0352 14.5887 35.9963C14.6276 35.9187 14.6761 35.8313 14.7732 35.7731C14.8605 35.7148 14.9673 35.7148 15.0547 35.7148C15.0935 35.7148 15.1615 35.7148 15.1809 35.7051C15.2003 35.6954 15.2294 35.6372 15.2488 35.5983C15.2877 35.5207 15.3362 35.4333 15.4236 35.3751C15.5109 35.3168 15.608 35.3071 15.6954 35.3071C15.7342 35.3071 15.8021 35.2974 15.8216 35.2877C15.841 35.278 15.8701 35.2101 15.8798 35.1712C15.9186 35.0936 15.9575 34.9965 16.0351 34.9383C16.1225 34.88 16.2196 34.8606 16.3069 34.8509C16.3457 34.8412 16.4137 34.8412 16.4331 34.8218C16.4525 34.8121 16.4719 34.7441 16.4914 34.7053C16.5205 34.6276 16.5593 34.5305 16.637 34.4626C16.7146 34.3946 16.8117 34.3849 16.8991 34.3655C16.9379 34.3558 17.0058 34.3461 17.0253 34.3364C17.0447 34.317 17.0641 34.2587 17.0738 34.2199C17.1029 34.1325 17.132 34.0452 17.2097 33.9675C17.2873 33.8996 17.3844 33.8705 17.4718 33.8607C17.5106 33.851 17.5786 33.8413 17.598 33.8219C17.6174 33.8025 17.6271 33.7443 17.6368 33.6957C17.6562 33.6084 17.6853 33.5113 17.7533 33.4433C17.8212 33.3657 17.9183 33.3366 18.0057 33.3171C18.0445 33.3074 18.1125 33.288 18.1222 33.2686C18.1416 33.2492 18.1513 33.1909 18.161 33.1424C18.1804 33.055 18.1901 32.958 18.2581 32.8803C18.326 32.8027 18.4231 32.7638 18.5008 32.7347C18.5396 32.7153 18.6075 32.6959 18.6172 32.6765C18.6269 32.657 18.6367 32.5891 18.6464 32.5503C18.6561 32.4629 18.6658 32.3658 18.724 32.2785C18.7823 32.1911 18.8793 32.1523 18.957 32.1134C18.9958 32.094 19.0541 32.0649 19.0638 32.0455C19.0735 32.0261 19.0735 31.9581 19.0832 31.9193C19.0832 31.8319 19.0832 31.7349 19.1414 31.6475C19.19 31.5601 19.2773 31.5116 19.355 31.4631C19.3938 31.4436 19.4521 31.4048 19.4618 31.3854C19.4715 31.366 19.4715 31.298 19.4618 31.2592C19.4521 31.1718 19.4521 31.0748 19.4909 30.9777C19.5297 30.8806 19.6171 30.8224 19.685 30.7738C19.7239 30.7447 19.7724 30.7059 19.7821 30.6865C19.7918 30.6671 19.7821 30.5991 19.7724 30.5603C19.753 30.4729 19.7336 30.3758 19.7724 30.2788C19.8015 30.1817 19.8792 30.1138 19.9374 30.0555C19.9665 30.0264 20.0151 29.9778 20.0248 29.9584C20.0345 29.939 20.0054 29.8711 19.9957 29.8322C19.9666 29.7546 19.9374 29.6575 19.9568 29.5604C19.9763 29.4634 20.0345 29.3857 20.0927 29.3178C20.1219 29.2886 20.1607 29.2304 20.1704 29.211C20.1704 29.1916 20.1413 29.1333 20.1219 29.0945C20.083 29.0168 20.0442 28.9295 20.0442 28.8227C20.0442 28.7547 20.0733 28.6868 20.1025 28.6285C20.1898 28.7159 20.2772 28.8033 20.3645 28.9003C20.3743 28.9198 20.384 28.9392 20.3937 28.9586C20.4325 29.0459 20.481 29.1333 20.4713 29.2498C20.4616 29.3566 20.3937 29.4439 20.3354 29.5119C20.3451 29.5604 20.3063 29.609 20.3063 29.6284Z" fill="white"/>
<path d="M7.13358 38.7338C7.13358 38.7435 7.14329 38.7532 7.14329 38.7629C7.09475 38.6853 7.04621 38.6076 7.00739 38.5202C7.07534 38.5882 7.10446 38.6658 7.13358 38.7338Z" fill="black"/>
<path d="M21.2188 30.5214C21.2479 30.6088 21.2868 30.7156 21.2576 30.8224C21.2285 30.9291 21.1508 31.0068 21.0829 31.065C21.0441 31.1039 21.0052 31.1427 20.9955 31.1621C20.9858 31.1815 21.0052 31.2495 21.0052 31.298C21.0247 31.3951 21.0441 31.4922 21.0052 31.5989C20.9664 31.7057 20.879 31.764 20.8014 31.8222C20.7626 31.8513 20.714 31.8902 20.7043 31.9096C20.6946 31.929 20.7043 31.9969 20.7043 32.0455C20.714 32.1426 20.7237 32.2493 20.6752 32.3464C20.6267 32.4435 20.5296 32.5017 20.4519 32.5503C20.4131 32.5794 20.3549 32.6085 20.3451 32.6279C20.3354 32.6473 20.3354 32.7153 20.3354 32.7638C20.3354 32.8609 20.3354 32.9677 20.2772 33.055C20.219 33.1521 20.1219 33.1909 20.0345 33.2298C19.986 33.2492 19.9374 33.2783 19.918 33.2977C19.9083 33.3171 19.8986 33.3851 19.8889 33.4239C19.8792 33.521 19.8695 33.6181 19.8015 33.7151C19.7336 33.8025 19.6365 33.8413 19.5492 33.8704C19.5006 33.8899 19.4424 33.9093 19.4327 33.9287C19.4132 33.9481 19.4035 34.0063 19.3938 34.0549C19.3744 34.152 19.3647 34.249 19.2871 34.3364C19.2191 34.4141 19.1123 34.4529 19.025 34.4723C18.9764 34.482 18.9182 34.5014 18.8988 34.5208C18.8794 34.5402 18.8696 34.5985 18.8599 34.647C18.8405 34.7344 18.8114 34.8412 18.7337 34.9188C18.6561 34.9965 18.5493 35.0159 18.4619 35.045C18.4134 35.0547 18.3552 35.0741 18.3357 35.0839C18.3163 35.1033 18.2969 35.1615 18.2872 35.21C18.2581 35.2974 18.229 35.4042 18.1513 35.4721C18.0737 35.5401 17.9669 35.5595 17.8795 35.5789C17.831 35.5886 17.7727 35.5983 17.7533 35.6178C17.7339 35.6372 17.7145 35.6954 17.6951 35.7342C17.6659 35.8216 17.6271 35.9187 17.5398 35.9866C17.4524 36.0546 17.3456 36.0643 17.2582 36.074C17.2097 36.0837 17.1515 36.0837 17.1223 36.1031C17.1029 36.1225 17.0738 36.1808 17.0544 36.2196C17.0156 36.307 16.9767 36.404 16.8894 36.4623C16.802 36.5302 16.6952 36.5302 16.6079 36.5399C16.5593 36.5399 16.4914 36.5496 16.472 36.5594C16.4525 36.5691 16.4234 36.6273 16.404 36.6758C16.3652 36.7632 16.3166 36.8506 16.2293 36.9088C16.1419 36.9671 16.0351 36.9671 15.9381 36.9768C15.8895 36.9768 15.8216 36.9768 15.8022 36.9962C15.7827 37.0059 15.7536 37.0641 15.7245 37.1127C15.6857 37.1903 15.6274 37.2874 15.5401 37.3456C15.443 37.4039 15.3362 37.3942 15.2488 37.3942C15.2003 37.3942 15.1421 37.3942 15.1129 37.4039C15.0935 37.4136 15.0547 37.4718 15.0353 37.5107C14.9867 37.5883 14.9382 37.6757 14.8411 37.7339C14.7441 37.7825 14.6373 37.7825 14.5499 37.7728C14.5014 37.7728 14.4431 37.7631 14.414 37.7728C14.3946 37.7825 14.3558 37.8407 14.3267 37.8795C14.2781 37.9572 14.2199 38.0446 14.1228 38.0931C14.0257 38.1416 13.919 38.1319 13.8316 38.1222C13.7831 38.1222 13.7248 38.1125 13.6957 38.1222C13.6763 38.1319 13.6374 38.1902 13.6083 38.229C13.5501 38.3067 13.4918 38.3843 13.3948 38.4329C13.2977 38.4717 13.1909 38.462 13.0938 38.4426C13.0453 38.4328 12.9871 38.4231 12.9579 38.4329C12.9385 38.4426 12.89 38.4911 12.8609 38.5299C12.8026 38.5979 12.7347 38.6852 12.6376 38.7241C12.5308 38.7629 12.4337 38.7435 12.3367 38.7241C12.2881 38.7144 12.2299 38.7047 12.2008 38.7144C12.1716 38.7241 12.1328 38.7726 12.1037 38.8114C12.0454 38.8794 11.9775 38.957 11.8707 38.9959C11.7639 39.025 11.6669 39.0056 11.5698 38.9765C11.5213 38.9667 11.463 38.9473 11.4436 38.957C11.4145 38.9667 11.3757 39.0056 11.3368 39.0444C11.2689 39.1124 11.2009 39.1803 11.0941 39.2094C10.9874 39.2386 10.8806 39.1997 10.7932 39.1706C10.7447 39.1609 10.6864 39.1415 10.667 39.1415C10.6379 39.1512 10.5894 39.19 10.5602 39.2191C10.4923 39.2774 10.4146 39.355 10.3079 39.3647C10.2011 39.3842 10.0943 39.3453 10.0069 39.3065C9.9681 39.2871 9.90986 39.2677 9.88074 39.2677C9.85161 39.2677 9.80308 39.3065 9.76425 39.3356C9.68659 39.3939 9.60893 39.4521 9.50215 39.4618C9.38566 39.4715 9.28859 39.423 9.21093 39.3745C9.1721 39.355 9.11386 39.3259 9.09444 39.3259C9.06532 39.3259 9.01679 39.355 8.96825 39.3842C8.89059 39.4327 8.80323 39.4812 8.69645 39.4812H8.68675C8.57026 39.4812 8.47318 39.4133 8.40523 39.355C8.3664 39.3259 8.31787 39.2968 8.29846 39.2871C8.26933 39.2871 8.21109 39.3065 8.16255 39.3259C8.07519 39.3647 7.97811 39.4036 7.87133 39.3745C7.75485 39.3453 7.67719 39.2677 7.60924 39.19C7.58012 39.1609 7.54129 39.1124 7.51216 39.1026C7.49275 39.0929 7.44422 39.0929 7.40539 39.1026C7.33744 39.0056 7.27919 38.9085 7.22095 38.8114C7.24036 38.8211 7.30831 38.8114 7.34714 38.8114C7.43451 38.8017 7.53158 38.792 7.61895 38.8211C7.70631 38.8503 7.77426 38.9182 7.8325 38.9765C7.87133 39.0153 7.91016 39.0638 7.93929 39.0735C7.9587 39.0735 8.02665 39.0541 8.06548 39.0347C8.14314 39.0056 8.24021 38.9667 8.34699 38.9765C8.44406 38.9862 8.52172 39.0444 8.59938 39.0929C8.63821 39.1221 8.69645 39.1609 8.72557 39.1609C8.74499 39.1609 8.80323 39.1221 8.84206 39.1026C8.91972 39.0541 9.00708 39.0056 9.11386 38.9959C9.21093 38.9959 9.2983 39.0347 9.38566 39.0735C9.4342 39.0929 9.49245 39.1221 9.51186 39.1221C9.53128 39.1221 9.58952 39.0832 9.61864 39.0541C9.68659 38.9959 9.77396 38.9376 9.88074 38.9279C9.97781 38.9182 10.0749 38.9473 10.1622 38.9862C10.2108 39.0056 10.269 39.025 10.2981 39.025C10.3176 39.025 10.3661 38.9765 10.4049 38.9473C10.4729 38.8891 10.5505 38.8211 10.6573 38.792C10.7544 38.7726 10.8515 38.8017 10.9388 38.8308C10.9874 38.8503 11.0456 38.8697 11.0747 38.86C11.0941 38.8503 11.1427 38.8017 11.1718 38.7726C11.2397 38.7047 11.3077 38.6367 11.4145 38.6076C11.5116 38.5785 11.6086 38.6076 11.696 38.627C11.7445 38.6367 11.8028 38.6561 11.8319 38.6464C11.8513 38.6367 11.8998 38.5882 11.929 38.559C11.9872 38.4911 12.0552 38.4134 12.1619 38.3746C12.259 38.3358 12.3561 38.3649 12.4532 38.3746C12.5017 38.3843 12.5696 38.394 12.5891 38.3843C12.6085 38.3746 12.6473 38.3261 12.6764 38.2872C12.7347 38.2193 12.7929 38.1319 12.8997 38.0931C12.9968 38.0543 13.0938 38.0737 13.1909 38.0834C13.2394 38.0931 13.3074 38.1028 13.3268 38.0931C13.3462 38.0834 13.385 38.0349 13.4142 37.996C13.4627 37.9184 13.5307 37.8407 13.6277 37.7922C13.7248 37.7533 13.8219 37.7631 13.9189 37.7728C13.9675 37.7825 14.0354 37.7825 14.0549 37.7728C14.0743 37.7631 14.1131 37.7048 14.1422 37.666C14.1908 37.5883 14.249 37.501 14.3461 37.4524C14.4431 37.4039 14.5402 37.4136 14.6276 37.4136C14.6761 37.4136 14.7441 37.4233 14.7635 37.4136C14.7829 37.4039 14.8217 37.3456 14.8411 37.3068C14.8897 37.2291 14.9382 37.1418 15.0353 37.0933C15.1324 37.0447 15.2294 37.0447 15.3168 37.0447C15.3653 37.0447 15.4333 37.0447 15.4527 37.035C15.4721 37.0253 15.5012 36.9671 15.5304 36.9185C15.5692 36.8409 15.6177 36.7438 15.7148 36.6953C15.8022 36.637 15.9089 36.637 15.9963 36.637C16.0448 36.637 16.1128 36.637 16.1322 36.6176C16.1516 36.6079 16.1807 36.5496 16.2002 36.5011C16.239 36.4234 16.2875 36.3264 16.3749 36.2681C16.4622 36.2099 16.569 36.2002 16.6564 36.1905C16.7049 36.1905 16.7729 36.1808 16.7923 36.1711C16.8117 36.1614 16.8408 36.0934 16.8602 36.0546C16.8991 35.9672 16.9379 35.8798 17.0156 35.8119C17.1029 35.7439 17.2 35.7342 17.2874 35.7245C17.3359 35.7148 17.4039 35.7148 17.4136 35.6954C17.433 35.676 17.4524 35.6178 17.4718 35.5692C17.5009 35.4818 17.5398 35.3848 17.6174 35.3168C17.6951 35.2489 17.8019 35.2295 17.8892 35.2197C17.9378 35.21 17.996 35.2003 18.0154 35.1809C18.0348 35.1615 18.0542 35.1033 18.0639 35.0547C18.0931 34.9674 18.1222 34.8703 18.1998 34.8023C18.2775 34.7344 18.3746 34.7053 18.4619 34.6859C18.5105 34.6761 18.5687 34.6567 18.5881 34.647C18.6076 34.6276 18.6173 34.5694 18.6367 34.5208C18.6561 34.4335 18.6852 34.3364 18.7532 34.2587C18.8211 34.1811 18.9279 34.152 19.0055 34.1228C19.0541 34.1131 19.1123 34.0937 19.1317 34.0743C19.1512 34.0549 19.1609 33.9869 19.1706 33.9481C19.19 33.8607 19.1997 33.7637 19.2676 33.6763C19.3356 33.5986 19.4327 33.5598 19.5103 33.5307C19.5589 33.5113 19.6171 33.4919 19.6268 33.4724C19.6462 33.453 19.6462 33.3851 19.6559 33.3365C19.6656 33.2492 19.6753 33.1424 19.7336 33.0647C19.7918 32.9774 19.8889 32.9385 19.9666 32.8997C20.0054 32.8803 20.0733 32.8512 20.0831 32.8318C20.0928 32.8124 20.0928 32.7444 20.0928 32.6959C20.0928 32.6085 20.0928 32.5017 20.151 32.4144C20.1995 32.327 20.2869 32.2687 20.3646 32.2299C20.4034 32.2105 20.4616 32.1717 20.4713 32.1523C20.481 32.1328 20.481 32.0649 20.4713 32.0164C20.4616 31.929 20.4519 31.8319 20.5005 31.7349C20.5393 31.6378 20.6267 31.5795 20.6946 31.531C20.7334 31.5019 20.782 31.463 20.7917 31.4436C20.8014 31.4242 20.7917 31.3563 20.782 31.3077C20.7626 31.2204 20.7431 31.1233 20.7723 31.0262C20.8014 30.9292 20.879 30.8612 20.9373 30.7932C20.9664 30.7641 21.0247 30.7156 21.0247 30.6962C21.0344 30.6768 21.0052 30.6088 20.9955 30.5603C20.9664 30.4729 20.9373 30.3855 20.9567 30.2788C20.9761 30.1817 21.0344 30.104 21.0926 30.0361C21.1217 29.9973 21.1606 29.9487 21.1703 29.9196C21.1703 29.9002 21.1411 29.8322 21.1217 29.7934C21.0829 29.7255 21.0441 29.6381 21.0441 29.5507C21.1703 29.7352 21.2965 29.9196 21.4129 30.104C21.3838 30.1429 21.3547 30.1817 21.3256 30.2205C21.2965 30.2593 21.2576 30.3079 21.2479 30.3273C21.1897 30.4244 21.2091 30.4826 21.2188 30.5214Z" fill="black"/>
<path d="M21.7721 30.9389C21.7527 31.0748 21.7138 31.2204 21.6847 31.3563L21.9759 31.4242C21.9759 31.4145 21.9759 31.4145 21.9759 31.4048C21.908 31.2592 21.84 31.0942 21.7721 30.9389ZM21.51 31.9484C21.442 32.1426 21.3644 32.327 21.277 32.5212L21.5488 32.6473C21.6362 32.4532 21.7139 32.2494 21.7915 32.0552L21.51 31.9484ZM20.9955 33.0745C20.8984 33.2492 20.7917 33.4336 20.6752 33.6084L20.9276 33.7734C21.044 33.589 21.1605 33.4045 21.2576 33.2201L20.9955 33.0745ZM20.3257 34.1131C20.2092 34.2782 20.0733 34.4432 19.9374 34.5985L20.1704 34.7927C20.3063 34.6276 20.4422 34.4626 20.5684 34.2879L20.3257 34.1131ZM19.5297 35.0645C19.3938 35.2101 19.2482 35.3654 19.0929 35.511L19.3064 35.7245C19.4618 35.5789 19.6074 35.4236 19.753 35.2683L19.5297 35.0645ZM18.6367 35.9284C18.4813 36.0643 18.326 36.2002 18.161 36.3361L18.3454 36.5691C18.5105 36.4332 18.6755 36.2973 18.8308 36.1614L18.6367 35.9284ZM17.6659 36.7244C17.5009 36.8506 17.3262 36.9671 17.1611 37.0933L17.3359 37.336C17.5106 37.2098 17.6853 37.0933 17.8504 36.9671L17.6659 36.7244ZM16.637 37.433C16.4622 37.5495 16.2875 37.6563 16.1031 37.7631L16.2584 38.0252C16.4428 37.9184 16.6175 37.8019 16.802 37.6951L16.637 37.433ZM15.5692 38.0737C15.3847 38.1708 15.2003 38.2678 15.0158 38.3649L15.1517 38.6367C15.3362 38.5396 15.5303 38.4426 15.7148 38.3358L15.5692 38.0737ZM14.4528 38.6464C14.2684 38.7338 14.0742 38.8212 13.8801 38.8988L13.9966 39.1706C14.1907 39.0833 14.3849 38.9959 14.579 38.9085L14.4528 38.6464ZM13.3074 39.1318C13.1132 39.2095 12.9191 39.2774 12.7249 39.3453L12.822 39.6269C13.0162 39.5589 13.22 39.4813 13.4141 39.4036L13.3074 39.1318ZM12.1231 39.5395C11.9192 39.5977 11.7154 39.656 11.5212 39.7045L11.5989 39.9957C11.8027 39.9472 12.0066 39.889 12.2105 39.821L12.1231 39.5395ZM10.9097 39.8501C10.7058 39.889 10.4923 39.9278 10.2981 39.9569L10.337 40.2578C10.5408 40.2287 10.7544 40.1899 10.9679 40.1511L10.9097 39.8501ZM7.96838 39.8987C8.08487 40.0346 8.20136 40.1608 8.31784 40.2772C8.34696 40.287 8.38579 40.287 8.41491 40.2967L8.45375 39.9957C8.28872 39.9763 8.1237 39.9472 7.96838 39.8987ZM9.68657 40.0249C9.47301 40.0443 9.26915 40.0443 9.0653 40.0443V40.3452C9.09442 40.3452 9.13325 40.3452 9.16237 40.3452C9.3371 40.3452 9.52155 40.3355 9.70598 40.3258L9.68657 40.0249Z" fill="black"/>
<path d="M22.4516 33.1327C22.3642 33.4142 22.2477 33.7054 22.1118 33.987C21.7138 34.8315 21.1314 35.6663 20.3742 36.4623C19.0249 37.8893 17.1514 39.1706 15.0935 40.0831C13.6374 40.7238 12.1619 41.1509 10.9291 41.2674C10.6767 41.2965 10.4437 41.3062 10.2108 41.3062C9.93895 41.3062 9.67686 41.2868 9.44388 41.248C9.24974 41.1121 9.05559 40.9568 8.87115 40.8014C9.38564 40.9956 10.0749 41.0441 10.9 40.9665C12.1037 40.85 13.5403 40.4423 14.9673 39.8113C16.9961 38.9182 18.8308 37.6466 20.151 36.2585C21.2964 35.045 22.0245 33.7637 22.306 32.4726C22.3739 32.6959 22.4225 32.9095 22.4516 33.1327Z" fill="black"/>
<path d="M22.5681 34.4917C22.5681 34.6665 22.5584 34.8412 22.5487 35.0159C22.1507 35.8022 21.5877 36.5885 20.879 37.336C19.5103 38.7823 17.598 40.1025 15.4915 41.0247C14.016 41.6848 12.5114 42.1119 11.2494 42.2284C11.0456 42.1508 10.8417 42.0634 10.6476 41.9663C10.832 41.9663 11.0262 41.9469 11.23 41.9275C12.4531 41.811 13.9286 41.3936 15.375 40.7432C17.4427 39.8307 19.3162 38.5397 20.6655 37.1224C21.5391 36.2002 22.1798 35.2295 22.5681 34.2491C22.5681 34.3267 22.5681 34.4141 22.5681 34.4917Z" fill="black"/>
<path d="M53.2347 30.788C56.1627 30.788 58.5867 29.732 60.1707 27.788L57.6747 25.484C56.5467 26.804 55.1307 27.476 53.4507 27.476C50.3067 27.476 48.0747 25.268 48.0747 22.1C48.0747 18.932 50.3067 16.724 53.4507 16.724C55.1307 16.724 56.5467 17.396 57.6747 18.692L60.1707 16.388C58.5867 14.468 56.1627 13.412 53.2587 13.412C48.0267 13.412 44.1387 17.036 44.1387 22.1C44.1387 27.164 48.0267 30.788 53.2347 30.788ZM66.1083 19.292V17.588H62.5323V30.5H66.2763V24.404C66.2763 21.932 67.6443 20.804 69.7083 20.804C69.9963 20.804 70.2363 20.828 70.5483 20.852V17.396C68.5563 17.396 67.0203 18.044 66.1083 19.292ZM74.6464 15.788C76.0384 15.788 76.9744 14.876 76.9744 13.628C76.9744 12.476 76.0384 11.612 74.6464 11.612C73.2544 11.612 72.3184 12.524 72.3184 13.7C72.3184 14.876 73.2544 15.788 74.6464 15.788ZM72.7744 30.5H76.5184V17.588H72.7744V30.5ZM86.2332 30.692C88.9452 30.692 91.0812 29.492 92.0172 27.428L89.1132 25.844C88.4172 27.092 87.3852 27.62 86.2092 27.62C84.3132 27.62 82.8252 26.3 82.8252 24.044C82.8252 21.788 84.3132 20.468 86.2092 20.468C87.3852 20.468 88.4172 21.02 89.1132 22.244L92.0172 20.684C91.0812 18.572 88.9452 17.396 86.2332 17.396C82.0332 17.396 79.0332 20.156 79.0332 24.044C79.0332 27.932 82.0332 30.692 86.2332 30.692ZM106.773 21.764C108.141 21.044 109.005 19.748 109.005 18.068C109.005 15.452 106.845 13.7 102.645 13.7H94.4369V30.5H103.125C107.541 30.5 109.845 28.82 109.845 25.916C109.845 23.804 108.645 22.364 106.773 21.764ZM102.165 16.628C104.061 16.628 105.093 17.276 105.093 18.596C105.093 19.916 104.061 20.588 102.165 20.588H98.3009V16.628H102.165ZM102.837 27.572H98.3009V23.42H102.837C104.853 23.42 105.933 24.092 105.933 25.508C105.933 26.948 104.853 27.572 102.837 27.572ZM114.396 15.788C115.788 15.788 116.724 14.876 116.724 13.628C116.724 12.476 115.788 11.612 114.396 11.612C113.004 11.612 112.068 12.524 112.068 13.7C112.068 14.876 113.004 15.788 114.396 15.788ZM112.524 30.5H116.268V17.588H112.524V30.5ZM127.063 27.236C126.655 27.548 126.103 27.716 125.551 27.716C124.543 27.716 123.943 27.116 123.943 26.012V20.756H127.159V17.876H123.943V14.732H120.199V17.876H118.207V20.756H120.199V26.06C120.199 29.132 121.975 30.692 125.023 30.692C126.175 30.692 127.303 30.428 128.071 29.876L127.063 27.236ZM134.517 30.692C138.381 30.692 140.613 28.988 140.613 26.588C140.613 21.5 132.813 23.636 132.813 21.428C132.813 20.756 133.533 20.228 135.213 20.228C136.389 20.228 137.661 20.468 138.933 21.188L140.181 18.524C138.957 17.804 136.989 17.396 135.213 17.396C131.445 17.396 129.237 19.124 129.237 21.572C129.237 26.732 137.037 24.572 137.037 26.684C137.037 27.404 136.389 27.86 134.661 27.86C133.077 27.86 131.325 27.356 130.173 26.612L128.925 29.3C130.125 30.092 132.333 30.692 134.517 30.692Z" fill="white"/>
</svg>
